<?xml version="1.0" encoding="UTF-8"?>
<svg width="31px" height="24px" viewBox="0 0 31 24" version="1.1" xmlns="http://www.w3.org/2000/svg" xmlns:xlink="http://www.w3.org/1999/xlink">
    <!-- Generator: Sketch 49 (51002) - http://www.bohemiancoding.com/sketch -->
    <title>m_close</title>
    <desc>Created with Sketch.</desc>
    <defs></defs>
    <g id="Welcome" stroke="none" stroke-width="1" fill="none" fill-rule="evenodd">
        <g id="m_listmenu" transform="translate(-24.000000, -12.000000)" fill="#004CA4">
            <g id="listmenu">
                <path d="M35.0861783,24 L24.4016192,16.5185912 C23.949214,16.2018137 23.8392661,15.5782679 24.1560436,15.1258627 L25.9130965,12.6165311 C26.229874,12.1641259 26.8534198,12.054178 27.305825,12.3709555 L39.5,20.9094088 L51.694175,12.3709555 C52.1465802,12.054178 52.770126,12.1641259 53.0869035,12.6165311 L54.8439564,15.1258627 C55.1607339,15.5782679 55.050786,16.2018137 54.5983808,16.5185912 L43.9138217,24 L54.5983808,31.4814088 C55.050786,31.7981863 55.1607339,32.4217321 54.8439564,32.8741373 L53.0869035,35.3834689 C52.770126,35.8358741 52.1465802,35.945822 51.694175,35.6290445 L39.5,27.0905912 L27.305825,35.6290445 C26.8534198,35.945822 26.229874,35.8358741 25.9130965,35.3834689 L24.1560436,32.8741373 C23.8392661,32.4217321 23.949214,31.7981863 24.4016192,31.4814088 L35.0861783,24 Z" id="m_close"></path>
            </g>
        </g>
    </g>
</svg>