<?xml version="1.0" encoding="UTF-8"?>
<svg width="37px" height="37px" viewBox="0 0 37 37" version="1.1" xmlns="http://www.w3.org/2000/svg" xmlns:xlink="http://www.w3.org/1999/xlink">
    <!-- Generator: Sketch 49 (51002) - http://www.bohemiancoding.com/sketch -->
    <title>Search_icon</title>
    <desc>Created with Sketch.</desc>
    <defs></defs>
    <g id="Welcome" stroke="none" stroke-width="1" fill="none" fill-rule="evenodd">
        <g id="w_main" transform="translate(-961.000000, -589.000000)" fill="#004CA4">
            <g id="home" transform="translate(0.000000, 69.000000)">
                <g id="home_searchbar" transform="translate(420.000000, 508.000000)">
                    <path d="M566.674248,34.943887 C568.454254,32.4837353 569.407796,29.5094706 569.394501,26.4589428 C569.360537,18.496053 563.004814,12.046138 555.146854,12.0001463 C551.386377,11.9829052 547.775284,13.4904106 545.118024,16.1868329 C542.460763,18.8832552 540.97807,22.5446074 541.000245,26.3552438 C541.034209,34.3188585 547.390512,40.7693611 555.249187,40.8153529 C558.271803,40.8286281 561.21762,39.8510817 563.646996,38.0286053 L573.578508,48.0795363 C574.114913,48.6497852 574.914193,48.8806085 575.666665,48.682573 C576.419136,48.4845376 577.006564,47.8887605 577.201347,47.1260775 C577.39613,46.3633945 577.167663,45.5536453 576.604465,45.0105698 L566.674248,34.943887 Z M555.238824,37.9327821 C548.952228,37.8961357 543.867268,32.736286 543.839671,26.3657449 C543.822703,23.3176306 545.008956,20.3891371 547.134364,18.2321586 C549.259772,16.0751801 552.147929,14.8687428 555.155921,14.8814044 C561.442518,14.9180508 566.527478,20.0779006 566.555075,26.4484416 C566.572043,29.4965559 565.38579,32.4250494 563.260382,34.5820279 C561.134974,36.7390064 558.246817,37.9454437 555.238824,37.9327821 Z" id="Search_icon"></path>
                </g>
            </g>
        </g>
    </g>
</svg>